<svg xmlns="http://www.w3.org/2000/svg" viewBox="0 0 419 386.77" width="16" height="17"><defs><style>.cls-1{fill:#fff;}</style></defs><title>Kick Plus Settings</title><g id="Layer_2" data-name="Layer 2"><g id="Layer_1-2" data-name="Layer 1"><path d="M0,386.77V0H419V386.77Zm326.69-46.23c-19.8-44.61-36.5-83-54.09-120.9-2.19-4.73-8.68-8.19-13.92-10.65-20.67-9.67-24-22-8.84-38.16,19-20.17,38.77-39.66,58.08-59.56,19.63-20.22,39.1-40.59,58.64-60.89C311.57,47,253.7,22.57,216.15,84.27c-6.68,11-17.75,19.25-31.79,34,6-28.4,10.51-49.7,15.86-75-29.49,0-55.24.81-80.92-.28-16.78-.72-23.56,6.25-26.83,22.15-8.64,42-19,83.7-28,125.64-1.39,6.41-1.51,18.48,1.1,19.5,17.37,6.85,9.41,19.12,7.28,29.29-6.74,32.19-14.4,64.2-22.75,100.89,30.12,0,56.67-.57,83.19.23,14.37.43,20.95-5.19,23.51-19.2,3.3-18.06,8.45-35.78,12.8-53.64,13.2,17.9,20.07,36.87,29.4,54.55,3.94,7.44,12.82,16.9,19.88,17.28C252.61,341.53,286.49,340.54,326.69,340.54Z"/><path class="cls-1" d="M326.69,340.54c-40.2,0-74.08,1-107.82-.81-7.06-.38-15.94-9.84-19.88-17.28-9.33-17.68-16.2-36.65-29.4-54.55-4.35,17.86-9.5,35.58-12.8,53.64-2.56,14-9.14,19.63-23.51,19.2-26.52-.8-53.07-.23-83.19-.23,8.35-36.69,16-68.7,22.75-100.89,2.13-10.17,10.09-22.44-7.28-29.29-2.61-1-2.49-13.09-1.1-19.5,9.05-41.94,19.37-83.62,28-125.64,3.27-15.9,10-22.87,26.83-22.15,25.68,1.09,51.43.28,80.92.28-5.35,25.29-9.85,46.59-15.86,75,14-14.79,25.11-23.08,31.79-34C253.7,22.57,311.57,47,366.56,50.38c-19.54,20.3-39,40.67-58.64,60.89-19.31,19.9-39.05,39.39-58.08,59.56C234.64,187,238,199.32,258.68,209c5.24,2.46,11.73,5.92,13.92,10.65C290.19,257.58,306.89,295.93,326.69,340.54Z"/></g></g></svg>